<?xml version="1.0" encoding="UTF-8" standalone="no"?>
<!DOCTYPE svg PUBLIC "-//W3C//DTD SVG 20010904//EN"
              "http://www.w3.org/TR/2001/REC-SVG-20010904/DTD/svg10.dtd">

<svg xmlns="http://www.w3.org/2000/svg"
     width="6.83333in" height="6.94444in"
     viewBox="0 0 492 500">
  <path id="Selection"
        fill="#059669" stroke="#059669" stroke-width="1"
        d="M 69.00,179.00
           C 57.75,175.79 44.19,164.18 36.00,156.00
             20.99,141.00 14.63,133.08 7.46,113.00
             7.46,113.00 4.64,105.28 4.64,105.28
             2.60,96.55 2.70,83.04 2.86,74.00
             2.86,74.00 2.86,65.00 2.86,65.00
             3.29,56.30 6.92,42.79 10.81,35.00
             15.95,24.70 20.29,18.88 27.40,10.00
             29.86,6.92 32.96,2.19 37.00,1.33
             44.93,-0.35 45.99,8.52 46.00,14.00
             46.00,14.00 46.00,30.00 46.00,30.00
             46.29,54.59 58.51,79.29 78.00,94.25
             87.85,101.82 90.82,103.47 102.00,108.69
             105.16,110.17 109.64,111.50 108.35,116.02
             107.18,120.09 93.82,133.09 90.15,138.01
             80.60,150.85 74.83,164.33 69.00,179.00 Z
           M 384.00,113.00
           C 392.21,109.08 401.55,105.43 409.00,100.28
             434.01,82.98 447.64,58.42 448.00,28.00
             448.07,21.69 445.78,4.05 453.17,1.65
             458.65,-0.12 467.19,11.17 470.10,15.00
             482.42,31.21 490.76,51.43 491.00,72.00
             491.35,101.84 485.95,120.86 467.87,145.00
             461.35,153.72 459.70,156.25 451.00,163.19
             451.00,163.19 435.00,175.09 435.00,175.09
             433.08,176.44 429.49,178.98 427.06,178.77
             422.50,178.37 419.84,166.74 418.22,163.00
             413.10,151.21 406.87,140.84 398.56,131.00
             393.80,125.35 386.09,120.12 384.00,113.00 Z
           M 212.00,101.00
           C 213.47,92.89 218.77,81.81 221.99,74.00
             226.38,63.37 230.59,53.66 237.00,44.00
             239.02,40.96 242.03,36.05 246.00,35.58
             251.07,34.97 256.18,43.30 258.65,47.00
             266.89,59.36 271.58,71.18 276.68,85.00
             278.06,88.73 281.75,97.02 280.22,100.78
             278.28,105.57 268.37,105.75 264.00,106.28
             253.71,107.55 230.74,107.79 221.00,105.07
             217.53,104.11 215.14,102.65 212.00,101.00 Z
           M 91.00,180.00
           C 92.54,170.61 103.31,152.80 109.13,145.00
             125.70,122.77 142.91,105.80 168.00,93.25
             174.08,90.21 185.50,85.18 192.02,84.00
             192.02,84.00 192.02,94.00 192.02,94.00
             192.31,101.01 196.53,109.78 201.32,114.82
             207.34,121.14 216.72,123.07 225.00,124.27
             231.38,125.19 235.43,125.99 242.00,126.00
             253.68,126.01 275.71,123.83 286.00,118.62
             292.86,115.16 299.21,107.57 300.88,100.00
             302.82,91.18 300.18,86.90 304.16,86.11
             306.04,85.74 311.07,87.51 313.00,88.18
             321.08,90.99 328.75,94.98 336.00,99.47
             336.00,99.47 343.91,104.09 343.91,104.09
             356.85,113.00 373.44,129.16 382.43,142.00
             382.43,142.00 388.53,152.00 388.53,152.00
             395.71,163.37 398.89,165.22 402.00,179.00
             397.07,179.77 392.72,177.47 388.00,176.02
             388.00,176.02 368.00,171.29 368.00,171.29
             368.00,171.29 323.00,166.00 323.00,166.00
             323.00,166.00 313.00,166.00 313.00,166.00
             313.00,166.00 278.00,163.00 278.00,163.00
             278.00,163.00 217.00,163.00 217.00,163.00
             217.00,163.00 182.00,166.00 182.00,166.00
             182.00,166.00 173.00,166.00 173.00,166.00
             173.00,166.00 141.00,169.72 141.00,169.72
             141.00,169.72 126.00,171.44 126.00,171.44
             126.00,171.44 91.00,180.00 91.00,180.00 Z
           M 70.00,252.00
           C 70.00,252.00 71.00,236.00 71.00,236.00
             71.12,225.13 70.74,214.86 78.62,206.17
             85.77,198.29 101.72,194.67 112.00,192.60
             138.72,187.22 169.77,184.31 197.00,184.00
             197.00,184.00 210.00,183.00 210.00,183.00
             210.00,183.00 224.00,183.00 224.00,183.00
             224.00,183.00 240.00,182.00 240.00,182.00
             240.00,182.00 269.00,182.00 269.00,182.00
             269.00,182.00 286.00,183.00 286.00,183.00
             286.00,183.00 311.00,184.00 311.00,184.00
             311.00,184.00 322.00,184.91 322.00,184.91
             322.00,184.91 367.00,190.00 367.00,190.00
             379.19,191.73 391.61,194.41 403.00,199.14
             409.54,201.86 414.09,203.72 418.30,210.00
             422.16,215.76 422.99,225.21 423.00,232.00
             423.00,232.00 424.00,252.00 424.00,252.00
             424.00,252.00 403.00,242.04 403.00,242.04
             403.00,242.04 378.00,235.12 378.00,235.12
             378.00,235.12 355.00,231.17 355.00,231.17
             355.00,231.17 336.00,229.83 336.00,229.83
             336.00,229.83 306.00,227.00 306.00,227.00
             306.00,227.00 292.00,227.00 292.00,227.00
             292.00,227.00 277.00,226.00 277.00,226.00
             277.00,226.00 222.00,226.00 222.00,226.00
             222.00,226.00 207.00,227.00 207.00,227.00
             207.00,227.00 192.00,227.00 192.00,227.00
             192.00,227.00 168.00,230.00 168.00,230.00
             168.00,230.00 158.00,230.00 158.00,230.00
             158.00,230.00 100.00,239.56 100.00,239.56
             100.00,239.56 70.00,252.00 70.00,252.00 Z
           M 168.00,451.00
           C 159.06,451.00 150.85,451.41 142.00,449.49
             107.64,442.05 75.56,417.35 64.84,383.00
             63.54,378.85 62.02,365.56 62.00,361.00
             62.00,361.00 61.00,345.00 61.00,345.00
             61.00,345.00 60.00,316.00 60.00,316.00
             60.09,308.88 62.83,286.23 65.23,280.00
             68.82,270.69 77.89,264.26 87.00,260.87
             97.64,256.92 99.98,255.96 100.00,267.00
             100.00,267.00 100.00,334.00 100.00,334.00
             100.30,359.41 108.47,385.37 131.00,399.42
             140.85,405.57 147.26,407.98 159.00,408.06
             159.00,408.06 267.00,408.06 267.00,408.06
             267.00,408.06 307.00,408.06 307.00,408.06
             307.00,408.06 316.00,408.06 316.00,408.06
             327.98,407.82 338.43,409.03 350.00,405.25
             355.77,403.37 365.37,398.50 370.00,394.67
             384.01,383.10 392.97,362.03 393.00,344.00
             393.00,344.00 394.00,321.00 394.00,321.00
             394.00,321.00 395.00,273.00 395.00,273.00
             395.00,270.10 393.96,262.53 395.78,260.61
             398.35,257.90 404.30,260.78 407.00,262.12
             415.91,266.54 423.79,271.63 428.10,281.00
             431.12,287.56 431.41,293.98 432.16,301.00
             432.16,301.00 433.00,321.00 433.00,321.00
             433.00,321.00 432.00,336.00 432.00,336.00
             432.00,336.00 432.00,354.00 432.00,354.00
             431.89,363.15 429.34,380.66 425.87,389.00
             420.86,401.02 413.21,413.68 403.83,422.82
             401.46,425.13 398.64,426.91 396.00,428.89
             380.79,440.30 361.43,449.97 342.00,450.00
             342.00,450.00 304.00,450.00 304.00,450.00
             304.00,450.00 287.00,451.00 287.00,451.00
             287.00,451.00 243.00,451.00 243.00,451.00
             231.18,451.02 229.07,455.93 221.00,464.00
             221.00,464.00 195.04,488.56 195.04,488.56
             190.41,492.62 185.54,498.54 179.00,498.86
             166.65,499.46 168.47,489.23 167.91,481.00
             167.91,481.00 167.00,467.00 167.00,467.00
             167.00,467.00 168.00,451.00 168.00,451.00 Z
           M 177.00,281.44
           C 208.03,278.14 224.54,319.92 196.96,338.46
             193.38,340.87 190.27,342.08 186.00,342.70
             180.68,343.47 174.06,343.16 169.00,341.29
             164.10,339.48 160.68,336.82 157.17,332.99
             144.34,318.95 147.66,298.88 162.00,287.27
             166.44,283.67 171.52,282.46 177.00,281.44 Z
           M 311.00,281.46
           C 316.96,280.66 321.47,281.50 327.00,283.88
             351.17,294.26 352.86,328.65 329.00,340.25
             323.60,342.88 319.84,343.06 314.00,343.00
             292.69,342.75 278.45,320.66 286.14,301.00
             290.26,290.46 300.39,283.83 311.00,281.46 Z" />
</svg>
