<svg xmlns="http://www.w3.org/2000/svg" viewBox="0 0 446.9 519.5"><path d="M97.7 67.1 0 101.8V82.2l46.4-15.4c13.8-4.7 26.4-8.7 36-10.7v-.3c-8.8-2.2-21.7-6.5-35.7-11.4L0 28.3V9.7l97.7 35.8v21.6Zm31.5 5c0 10.8 5.5 20.3 16.3 20.3s12.2-4.2 14.3-8.9h17.6c-2.7 9.1-10.6 22.8-32.5 22.8s-33.4-18.1-33.4-37 11.5-39 34.3-39 32.7 18.2 32.7 35.5 0 4.1-.3 6.2h-49Zm31.6-11.3c-.1-9.7-4.3-17.6-15.1-17.6s-15.1 7.4-16.1 17.6h31.2-.1Zm31 43.8V1.4h17.5v103.2h-17.5Zm26.9-66-.8-37.2H231l-.8 37.2h-11.7.1Zm35.6 25.3c5.6-7.1 17.3-20.3 27.4-31.9H302l-26 27.7 28.6 44.9h-20l-20.3-33.5-9.8 9.4v24.1H237V1.4h17.5v62.5h-.1Z"/><path d="M319.5 32c9.1 28.4 15.6 49.6 17 56.6h.1c1.8-7.7 6.4-24 16.1-56.6h17.5l-25 75.1c-7 21-12.8 26.9-29.2 26.9s-5.6-.1-8.9-.5v-14.4c1.5.1 3.7.3 5.5.3 7.9 0 11.6-2.9 14.8-12.4l-26.7-75h18.9Zm43.9-32-22.2 21.2h-15.7L342.3 0h21ZM30.2 159.9H0v-15.3h78.8v15.3H48.6v82.5H30.2v-82.5Zm64.3 9.9c9.1 28.4 15.6 49.6 17 56.6h.1c1.8-7.7 6.4-24 16.1-56.6h17.5l-25 75.1c-7 21-12.8 26.9-29.2 26.9s-5.6-.1-8.9-.5v-14.4c1.5.1 3.7.3 5.5.3 7.9 0 11.6-2.9 14.8-12.4l-26.7-75h18.9Zm43.9-32L116.2 159h-15.7l16.8-21.2h21Zm11.5 91.1 38-45.2h-36v-14h55.7v13.8l-37.1 44.6H210l-2.3 14.2h-57.9v-13.4Zm21.7-68.6-15.9-21.2h15.9l8 11.7 7.7-11.7h16.1l-16.1 21.2h-15.7Zm113-21.1v83c0 6.8 0 13.4.1 20.2h-17c-.3-2.2-.8-6.5-.8-8.4-3.6 6.4-10.2 10.2-21.4 10.2-18.4 0-30.1-14.8-30.1-37.2s12.4-38.6 32.9-38.6 16.8 4.2 18.6 7.8v-36.7h17.6Zm-34.1 90.6c14.8 0 17.1-11.9 17.1-24.1s-2.3-23.3-16.6-23.3-17.5 8.9-17.5 23.9 6.5 23.6 17 23.6Zm64.7-20c0 10.8 5.5 20.3 16.3 20.3s12.2-4.2 14.3-8.9h17.6c-2.7 9.1-10.6 22.8-32.5 22.8s-33.4-18.1-33.4-37 11.5-39 34.3-39 32.7 18.2 32.7 35.5 0 4.1-.3 6.2h-49Zm31.6-11.2c-.1-9.7-4.3-17.6-15.1-17.6s-15.1 7.4-16.1 17.6h31.2-.1Zm31.3-10.6c0-6.2 0-12.8-.1-18.2h17c.4 1.9.8 7.9.8 10.2 2.6-5.1 8.4-11.9 21.6-11.9s24.1 9.3 24.1 27.9v46.3H424v-44.4c0-9.1-3.2-15.6-12.9-15.6s-15.4 6.6-15.4 20v39.8h-17.5v-54.3Zm23.3-28.7-15.9-21.2h15.9l8 11.7 7.7-11.7h16.1l-16.1 21.2h-15.7ZM50.3 363.6c17.1 0 35.7.3 46.4.8v-.8c-18.5-4.3-54.2-16.2-84.8-26.3v-15.8c26.1-7.5 66.7-19.8 85.2-24.1v-.5c-11.5.9-32 1.3-48.9 1.3H11.9v-17h97.7v27.3c-27.3 8.9-61.7 19.3-75.5 22.2v.3c11.7 2.3 48.9 14.8 75.5 24.1v26.3H11.9v-17.6h38.4Zm136.4-1.2c0 6.8.5 15.9 1 17.7h-16.8c-.5-1.5-1-5.2-1.1-7.9-2.6 4.3-7.8 9.6-21 9.6s-24.7-11.5-24.7-22.6c0-16.3 13.1-24 34.4-24h11v-5c0-5.6-1.8-11.6-12.8-11.6s-11.6 4.3-12.6 9.7h-16.8c1-11.9 8.4-22.7 30.1-22.6 18.9.1 29.2 7.7 29.2 24.6v31.9h.3Zm-17.1-16.1h-9.4c-12.9 0-18.5 3.8-18.5 12s4 10.7 11.7 10.7c14.4 0 16.2-9.9 16.2-20.7v-2.2Zm35 33.8V276.9h17.5v103.2h-17.5Zm46.3-72.6c9.1 28.4 15.6 49.6 17 56.6h.1c1.8-7.7 6.4-24 16.1-56.6h17.5l-25 75.1c-7 21-12.8 26.9-29.2 26.9s-5.6-.1-8.9-.5v-14.4c1.5.1 3.7.3 5.5.3 7.9 0 11.6-2.9 14.8-12.4l-26.7-75H251Zm44-32-22.2 21.2H257l16.8-21.2h21Zm76.9 81.6c-2.7 12.1-11.1 24.7-31.8 24.7s-33.5-15.3-33.5-37.5 12.6-38.4 34.6-38.4 30.2 16.7 30.7 25.3h-17.2c-1.4-6.5-5.2-11.4-14-11.4s-16.2 9.1-16.2 23.9 6 24.2 16.1 24.2 11.9-4.3 14-10.8h17.3Zm29.5-80.2v39.9c3.4-5.4 9.4-11 21.4-11s24.2 7.5 24.2 27.8V380h-17.3v-43.7c0-10.5-4-16.1-13.1-16.1s-15.3 8.4-15.3 20.9v39h-17.5V276.9h17.6ZM10.6 420.1h66.3v15.3H28.4v26.5h45.3v15.3H28.4v40.7H10.5v-97.7h.1Zm78 11.6v-17.1h17.5v17.1H88.6Zm0 13.6h17.5v72.6H88.6v-72.6Zm35.4 19.6c0-8.2 0-14.3-.1-19.6h17.2c.3 1.7.4 8.4.4 13.4 3.4-8.8 11.5-14.9 23.7-15.1v17c-14.7-.1-23.7 5.1-23.7 24.5V518H124v-52.9Zm51.5-33.2v-17.1H193v17.1h-17.5Zm0 13.6H193v72.6h-17.5v-72.6Zm48.5 40c0 10.8 5.5 20.3 16.3 20.3s12.2-4.2 14.3-8.9h17.6c-2.7 9.1-10.6 22.8-32.5 22.8s-33.4-18.1-33.4-37 11.5-39 34.3-39 32.7 18.2 32.7 35.5 0 4.1-.3 6.2h-49Zm31.6-11.2c-.1-9.7-4.3-17.6-15.1-17.6s-15.1 7.4-16.1 17.6h31.2-.1Zm31-10.2c0-6.2 0-12.6-.1-18.6h16.8c.3 1.8.5 6.4.8 9.4 3.6-5.7 9.6-11.1 20.5-11.1s16.6 5.4 19.3 11.7c4.1-6.2 10.6-11.7 22.6-11.7s23 7.5 23 26.7v47.6h-17.2v-45.4c0-7.1-2.6-14.5-11.9-14.5s-13.5 6.8-13.5 18.5V518h-17.2v-44.9c0-8-2.2-14.9-11.6-14.9s-13.8 6.5-13.8 19.5v40.4H287v-54h-.3Z"/></svg>